<?xml version="1.0" encoding="UTF-8"?><svg id="bread1" xmlns="http://www.w3.org/2000/svg" viewBox="0 0 158.85 132.89"><defs><style>.cls-1{fill:none;stroke:#fff;stroke-miterlimit:10;}</style></defs><path class="cls-1" d="M24.61,77.18C72.88,38.85,94.98,39.61,119.44,23.73c25.07-16.28,25.62-2.34,27.59,.86,1.5,2.44,1.85,7.64-9.48,22.41-7.88,10.28-30.11,36.51-93.1,62.07-20.54,8.33-27.74,9.42-31.03,6.03-6.34-6.52,1.1-29.91,11.21-37.93Z"/><path class="cls-1" d="M51.2,79.5c.74-2.78-2.9-4.52-4.57-2.19-9.91,13.77-11.77,18.27-10.81,19.14,1.09,.99,5.96-2.58,8.62-5.17,3.76-3.67,5.74-7.97,6.76-11.78Z"/><path class="cls-1" d="M82.54,60.02c.8-1.36-1.85-2.34-2.78-1.07-12.25,16.66-14.52,21.87-13.48,22.82,1.09,.99,8.42-8.44,10.31-11.64l5.95-10.11Z"/><path class="cls-1" d="M116.82,41.19c.74-2.78-2.9-4.52-4.57-2.19-9.91,13.77-18.48,19.31-10.81,19.14,1.48-.03,5.96-2.58,8.62-5.17,3.76-3.67,5.74-7.97,6.76-11.78Z"/></svg>