<?xml version="1.0" encoding="UTF-8"?><svg id="bread2" xmlns="http://www.w3.org/2000/svg" viewBox="0 0 193.89 91.66"><defs><style>.cls-1{fill:none;stroke:#fff;stroke-miterlimit:10;}</style></defs><path class="cls-1" d="M16.91,39.65c16.77-15.33,60.72-18.1,65.39-6.06,.35,.89,.4,1.78,.26,2.64-.98,5.78-9.26,5.64-10.6-.07-.53-2.25-.08-4.86,1.75-8.18,17.58-31.85,48.82-17.29,53.68-11.51,1.73,2.06-.95,5.21-3.39,3.8-5.7-3.3,46.96-14.78,55.65-.5,15.62,25.68-2.7,39.99-47.2,53.47-20.56,6.23-50.13,11.15-69.95,10.18-13.65-.66-47.63-5.61-52.18-18.5s1.86-20.97,6.58-25.29Zm16.77,11.07c.61-.1,1.28-.11,1.85-.4,9.15-4.61,11.78-7.53,13.29-10.12m49.28-12.28c.42-.07,.87-.07,1.26-.27,6.23-3.16,8.02-5.16,9.04-6.94"/></svg>