<svg aria-hidden="true" style="position: absolute; width: 0; height: 0; overflow: hidden;" version="1.1" xmlns="http://www.w3.org/2000/svg" xmlns:xlink="http://www.w3.org/1999/xlink">
<defs>
<symbol id="icon-jenkins" viewBox="0 0 32 32">
<path fill="#d24939" style="fill: var(--color1, #d24939)" d="M3.831 32h-1.3c-0.033-0.088-0.065-0.175-0.093-0.263-0.287-0.888-0.792-1.987-0.923-2.872-0.195-1.312 1.040-1.385 1.832-1.953 1.22-0.88 2.18-1.367 3.503-2.161 0.393-0.237 1.576-0.831 1.708-1.104 0.268-0.544-0.46-1.309-0.653-1.735-0.3-0.675-0.46-1.248-0.501-1.912-1.099-0.175-1.94-0.836-2.459-1.58-0.84-1.233-1.421-3.513-0.7-5.248 0.060-0.137 0.339-0.407 0.38-0.617 0.080-0.412-0.14-0.96-0.161-1.399-0.080-2.256 0.38-4.2 1.901-4.88 0.617-2.453 2.817-3.271 4.897-4.489 0.775-0.456 1.632-0.749 2.52-1.076 3.163-1.169 8.037-0.949 10.66 1.044 1.115 0.844 2.901 2.628 3.541 3.919 1.683 3.407 1.56 9.101 0.383 13.247-0.161 0.561-0.388 1.376-0.711 2.044-0.224 0.465-0.919 1.4-0.833 1.813 0.085 0.419 1.585 1.56 1.909 1.86 0.579 0.563 1.68 1.3 1.765 2 0.093 0.743-0.331 1.781-0.547 2.5-0.289 0.961-0.581 1.921-0.872 2.841h-25.249zM18.636 27.279c-0.727-0.399-1.815-0.828-2.753-1.008-1.159-0.219-1.039 1.584-1 2.659 0.040 0.857 0.481 1.755 0.681 2.325 0.1 0.263 0.119 0.547 0.34 0.599 0.4 0.091 1.72-0.435 2.1-0.639 0.8-0.437 1.419-1.125 2.099-1.585 0.021-0.227 0.021-0.453 0.041-0.677-0.401-0.197-0.86-0.344-1.461-0.369 0.419-0.2 1-0.2 1.38-0.443l0.021-0.257c-0.661-0.041-0.919-0.339-1.361-0.581zM28.576 31.193c0.257-0.825 0.479-1.628 0.62-2.336 0.079-0.383 0.287-1.224 0.237-1.568-0.079-0.612-0.912-1.065-1.339-1.448-0.779-0.7-1.268-1.3-2.081-1.959-0.331 0.5-1.039 0.82-1.309 1.219 1.929-0.919 2.279 3.5 1.521 4.919 0.12 0.44 0.521 0.601 0.685 0.981l-0.115 0.221h1.719c0.019 0 0.041 0 0.060 0.019zM19.729 31.177c-0.065-0.099-0.133-0.18-0.2-0.279l-0.401 0.26h0.601zM23.424 31.177c0.011-0.279 0.024-0.539 0.039-0.797-0.705 0.039-1.099-0.64-1.593-0.703-0.432-0.060-0.8 0.481-1.36 0.26-0.128 0.14-0.245 0.303-0.38 0.421 0.205 0.24 0.393 0.5 0.565 0.779h1.088c0.019-0.219 0.18-0.38 0.399-0.38 0.221 0 0.38 0.161 0.38 0.36h0.88zM26.245 31.177c-0.419-0.639-1.263-1.197-2.24-0.74l-0.041 0.721h2.281zM14.899 31.177l-0.14-0.459c-0.3-0.961-0.479-1.68-0.54-2.24-1.219-0.581-2.5-1.161-3.539-1.901-0.2-0.14-1.479-1.8-1.64-1.74-2.319 0.901-4.479 2.479-6.419 3.979 0.341 0.743 0.64 1.521 0.92 2.32h11.34zM25.919 28.36c-0.039-0.683-0.219-2.081-0.64-2.32-0.88-0.521-2.461 1.039-3.12 1.257 0.060 0.2 0.18 0.361 0.2 0.64 0.38-0.099 0.86-0.039 1.197 0.123-0.399 0.039-0.839 0.039-1.099 0.219-0.099 0.26 0.021 0.64-0.039 1.019 0.919 0.263 2 0.404 3.18 0.443 0.219-0.303 0.3-0.86 0.281-1.443zM20.479 27.88c-0.060 0.5 0.060 0.68 0.159 1.257 1.68 0.521 1.38-2.32-0.18-1.279zM11.681 26c-0.6 0.609 1.695 1.443 2.419 1.487 0-0.388 0.22-0.752 0.18-1.028-0.865-0.156-2.003-0.055-2.593-0.461zM19.101 26.287c0 0.057-0.081 0.039-0.091 0.085 0.773 0.601 1.352 0.727 2.404 0.68 0.472-0.349 0.893-0.751 1.391-1.076-1.14 0.099-2.576 0.809-3.7 0.305zM23.661 2.651c-2.14-1.208-5.8-2.121-8.101-0.975-1.84 0.923-4.36 2.455-5.199 4.389 0.8 1.869-0.221 3.581-0.301 5.479-0.024 1.011 0.48 1.893 0.521 2.991-0.267 0.451-1.1 0.507-1.68 0.475-0.195-0.972-0.535-2.065-1.54-2.175-1.419-0.153-2.46 1.020-2.521 2.245-0.080 1.439 1.112 3.819 2.781 3.66 0.651-0.061 0.811-0.721 1.519-0.721 0.38 0.76-0.593 1-0.697 1.54-0.021 0.14 0.079 0.681 0.139 0.94 0.311 1.259 0.992 2.879 1.66 3.84 0.847 1.2 2.512 1.401 4.305 1.521 0.32-0.7 1.5-0.64 2.275-0.461-0.921-0.36-1.781-1.26-2.5-2.039-0.82-0.901-1.64-1.88-1.681-3.040 1.54 2.139 2.8 3.999 5.601 4.939 2.12 0.7 4.599-0.339 6.219-1.479 0.68-0.479 1.081-1.24 1.56-1.919 1.8-2.581 2.64-6.28 2.461-9.86-0.081-1.481-0.081-2.961-0.581-3.94-0.519-1.041-2.26-1.961-3.3-1.041-0.2-1.019 0.839-1.639 2.060-1.279-0.88-1.14-1.781-2.479-3.021-3.18zM18.109 19.861c0.82 2.059 3.633 1.817 6.008 1.764-0.112 0.259-0.341 0.58-0.62 0.687-0.76 0.309-2.861 0.544-3.917-0.016-0.675-0.361-1.099-1.164-1.469-1.636-0.183-0.229-1.060-0.811-0.016-0.812zM18.328 18.7c1.191 0.62 3.36 0.691 4.976 0.64 0.088 0.357 0.088 0.792 0.091 1.219-2.068 0.107-4.516-0.405-5.060-1.86zM27.229 17.92c-0.631 1.2-1.527 2.529-3.385 2.571-0.031-0.379-0.060-0.98 0-1.205 1.419-0.137 2.303-0.861 3.391-1.356zM26.364 17.031c-1.36 0.88-2.872 1.833-5.099 1.613-0.469-0.413-0.648-1.335-0.188-1.944 0.243 0.417 0.081 1.18 0.76 1.292 1.26 0.221 2.719-0.771 3.64-1.12 0.56-0.949-0.060-1.3-0.56-1.909-1.041-1.241-2.44-2.8-2.401-4.68 0.419-0.3 0.461 0.46 0.521 0.599 0.539 1.281 1.899 2.901 2.899 4 0.24 0.281 0.64 0.521 0.68 0.7 0.123 0.519-0.339 1.139-0.279 1.479zM8.444 16.131c-0.419-0.245-0.524-1.32-1.024-1.347-0.713-0.040-0.584 1.399-0.581 2.239-0.493-0.439-0.58-1.819-0.219-2.52-0.411-0.2-0.593 0.22-0.824 0.38 0.293-2.12 3.12-0.979 2.652 1.28zM6.285 7.992c-0.913 1.008-0.72 2.899-0.612 4.251 1.659-1.047 3.864 0.080 3.844 1.86 0.793-0.021 0.297-0.992 0.153-1.62-0.471-2.039 0.789-4.251 0.055-6.12-1.419 0.111-2.585 0.692-3.437 1.619zM18.445 9.476c0.409 0.749 0.539 1.531 1.12 2.093 0.26 0.255 0.765 0.565 0.516 1.268-0.060 0.161-0.487 0.521-0.735 0.6-0.899 0.26-3.005 0.040-2.295-1.080 0.751 0.020 1.752 0.479 2.309-0.060-0.419-0.7-1.18-2.040-0.899-2.84zM26.711 9.459h0.091c0.44 0.891 0.8 1.833 1.339 2.62-0.36 0.839-2.737 1.587-2.697 0.076 0.519-0.227 1.399-0.047 1.86-0.333-0.257-0.741-0.64-1.341-0.579-2.361zM17.473 7.303c-1.896-0.44-2.841 0.789-3.413 2.071-0.512-0.125-0.308-0.82-0.18-1.177 0.34-0.935 1.707-2.177 2.825-2.008 0.479 0.076 1.131 0.515 0.768 1.112zM12.857 2.123c-2.080 0.587-4.747 2.099-5.6 3.965 0.66-0.093 1.12-0.428 1.773-0.468 0.248-0.021 0.571 0.099 0.855 0.020 0.565-0.139 1.040-1.42 1.469-1.879 0.415-0.461 0.913-0.663 1.255-1.081 0.221-0.12 0.544-0.099 0.56-0.44-0.099-0.1-0.2-0.18-0.311-0.14z"></path>
</symbol>
<symbol id="icon-jinja" viewBox="0 0 32 32">
<path fill="#b41717" style="fill: var(--color2, #b41717)" d="M31.625 0.891l-0.107 0.052c0 0-6.084 2.9-10.992 3.536-2.472 0.32-6.073 0.641-9.287 0.827-1.252 0.082-2.765 0.138-4.287 0.156l-0.052 0c-1.223 0.007-2.173-0.043-2.6-0.147-1.279-0.306-2.347-0.641-3.384-1.038l0.184 0.062-0.336-0.133 0.461 1.563-1.227 1.079 0.331 0.583 0.587 0.044 1.403 0.175 0.216 0.685 0.847 0.076 0.424 1.437 0.123 0.008c0 0 1.784 0.153 2.349 0.153 0.487 0 1.24-0.055 1.429-0.067l0.032 0.528 0.383 0.072v0.42l-1.065 0.947 0.208 0.037c-0.187 0.013-0.303 0.024-0.667 0.040-0.572 0.023-1.245 0.027-1.604-0.024-0.781-0.115-0.945-0.115-0.945-0.115h-0.076l-0.163 0.173-0.061 0.595h0.203l0.073 1.481 3.911-0.151-0.273 4.909-0.027 0.463-2.989-0.169-0.027-1.015h0.717l0.076-0.56 0.619-0.141 0.297-0.416-2.815-0.68-2.273 0.675 0.62 0.517h0.221l0.033 0.445 0.659 0.037v1.017l-0.815 0.209 0.253 0.539 0.14 0.091v1.1h0.457v4.395l-0.755 0.115 0.131 1.663 0.445 0.075-0.073 3.123 2.404 0.044-0.427-3.071 2.643-0.064-0.185 1.449-0.333 1.376 3.477 0.044 0.036-3.040 1.763-0.159-0.096 1.724-0.084 1.32h2.177l-0.071-3.067 0.235 0.036 0.089-1.856h-0.324l-0.077-0.453-0.175-1.72 0.065-1.819h0.393v-1.576l-0.485 0.036 0.053-1.075 0.575-0.057 0.029-0.469 0.229-0.033 0.68-0.519-2.436-0.5-2.279 0.505 0.38 0.625 0.319-0.027 0.072-0.005 0.045 0.589 0.547-0.027 0.005 0.899-2.035-0.047 0.071-1.169 0.079-1.235v-1.617l0.064-1.536 4.647-0.237 5.541-0.32 0.044 0.899-0.203 2.599-0.084 2.257-1.76-0.031-0.008-1.357 0.765-0.028 0.037-0.497 0.36-0.055-0.016-0.076 0.203-0.013 0.387-0.517-2.68-0.628-2.649 0.568 0.344 0.6 0.187-0.013v0.119h0.328v0.536l0.699 0.011-0.008 1.141h-0.703l-0.019 0.673 0.249 0.029-0.028 1.304 0.525 0.027-0.059 4.82-0.699 0.144 0.021 0.564h0.235v1.313h0.385l-0.093 1.607-0.149 1.752 2.893 0.076-0.092-1.563-0.184-1.131-0.029-0.791 1.767-0.032-0.055 1.336-0.011 1.773 1.377 0.109 1.669-0.067 0.711-0.209-0.333-1.013-0.071-1.333-0.107-0.777 1.644-0.060-0.076 0.989-0.008 2.020 0.984 0.092 0.841-0.021 0.555-0.173-0.249-1.899-0.065-1.149 0.333-0.036 0.008-1.193 0.107-0.023-0.036-0.573h-0.404l-0.065-0.703-0.031-3.589 0.296-0.008v-1.203l0.128 0.019v-0.615l-0.445-0.036 0.008-1.115 0.76-0.068-0.044-0.483 0.347-0.028-0.032-0.156 0.773-0.387-2.741-0.551-2.508 0.507 0.309 0.576 0.297-0.027 0.019 0.103h0.271l0.015 0.568 0.729-0.008 0.047 1.031-2.228-0.016-0.281-1.943-0.237-1.101-0.193-1.959 0.1-0.995 5.129-0.391 0.016-1.755 0.268-0.067-0.031-0.507-0.319-0.184h-0.049l-0.476 0.067-1.057 0.155c-0.28 0.055-1.021 0.156-1.765 0.248l-0.402 0.040-0.255 0.027-0.019-0.237-1.047-0.547 0.008-0.367 0.361-0.011 0.027-0.896c0.12-0.008 0.469-0.032 1.028-0.083 0.645-0.060 1.387-0.14 1.815-0.24 0.796-0.187 1.936-0.375 1.936-0.375l0.101-0.016 0.544-1.477 1.073-0.312 0.088-0.245 2.373-0.656 0.408-0.336-0.956-2.085 0.063-0.315 0.459-0.24 0.396-1.208zM19.768 8.973l-0.013 0.701 0.543 0.023-0.021 0.427-1.052 0.691-0.115 0.344-2.48 0.12 0.013-0.245 0.149-0.241 0.013-0.204 0.001-0.304 0.089-0.208 0.041-0.213v-0.123l0.107-0.431zM12.86 9.588l-0.057 0.352 0.265 0.312-0.019 0.516 0.235 0.36-0.063 0.437 0.033 0.047-2.463 0.099 0.027-0.203-0.871-0.472-0.029-0.46 0.388-0.019 0.037-0.797zM18.213 20.921l1.677 0.109-0.067 2.584 0.244 2.055-1.787-0.063zM4.579 21.033l2.88 0.149-0.259 1.711v1.625l0.183 0.697-2.787 0.131zM25.081 21.047v4.341l-1.721 0.125-0.068-2.297-0.211-2.123zM9.755 21.148l2.051 0.008 0.023 3.995-1.907 0.035-0.101-1.237-0.008-1.396z"></path>
</symbol>
</defs>
</svg>
